{
	"asset": {
		"version": "2.0",
		"generator": "Created using the official Cinema 4D glTF Exporter 1.000x284978"
	},
	"scenes": [
		{
			"nodes": [
				0,
				1
			]
		}
	],
	"images": [
		{
			"uri": "data:image/png;base64,"
		}
	],
	"nodes": [
		{
			"name": "water ball 02",
			"translation": [
				0.0,
				703.359619140625,
				-6.803136825561523
			],
			"rotation": [
				-0.02112669311463833,
				0.09586111456155777,
				-0.043049365282058719,
				-0.9942389130592346
			],
			"scale": [
				1.0,
				1.0,
				1.0
			],
			"children": [
				2
			]
		},
		{
			"name": "Logo Vikki",
			"children": [
				3
			]
		},
		{
			"name": "Torus_1",
			"translation": [
				-35.081417083740237,
				205.1458740234375,
				6.517745018005371
			],
			"rotation": [
				0.2637156844139099,
				0.7190443873405457,
				-0.01831809990108013,
				-0.6427236199378967
			],
			"scale": [
				1.0,
				1.0,
				1.0
			],
			"children": [
				4
			]
		},
		{
			"name": "Logo Vikki",
			"mesh": 0
		},
		{
			"name": "Torus_1",
			"mesh": 1,
			"translation": [
				1.429412144204889e-14,
				6.228524640494726e-14,
				-4.631711680858075e-15
			],
			"rotation": [
				-1.3877787807814458e-17,
				-2.7755575615628916e-17,
				3.851859888774472e-34,
				-1.0
			],
			"scale": [
				1.0,
				1.0,
				1.0
			]
		}
	],
	"meshes": [
		{
			"name": "Logo Vikki",
			"primitives": [
				{
					"attributes": {
						"POSITION": 5,
						"NORMAL": 6,
						"TEXCOORD_0": 7
					},
					"indices": 4,
					"material": 0
				}
			]
		},
		{
			"name": "Torus_1",
			"primitives": [
				{
					"attributes": {
						"POSITION": 9,
						"NORMAL": 10,
						"TEXCOORD_0": 11
					},
					"indices": 8,
					"material": 1
				}
			]
		}
	],
	"accessors": [
		{
			"bufferView": 0,
			"type": "SCALAR",
			"componentType": 5126,
			"count": 501,
			"min": [
				0.0
			],
			"byteOffset": 0,
			"max": [
				16.66666603088379
			]
		},
		{
			"bufferView": 0,
			"type": "VEC4",
			"componentType": 5126,
			"count": 501,
			"min": [
				-0.02112669311463833,
				0.09586111456155777,
				-0.043049365282058719,
				-0.9942389130592346
			],
			"byteOffset": 2004,
			"max": [
				0.5,
				0.5,
				0.5,
				-0.5
			]
		},
		{
			"bufferView": 1,
			"type": "SCALAR",
			"componentType": 5126,
			"count": 501,
			"min": [
				0.0
			],
			"byteOffset": 0,
			"max": [
				16.66666603088379
			]
		},
		{
			"bufferView": 1,
			"type": "VEC3",
			"componentType": 5126,
			"count": 501,
			"min": [
				0.0,
				0.0,
				0.0
			],
			"byteOffset": 2004,
			"max": [
				1.0,
				1.0,
				1.0
			]
		},
		{
			"bufferView": 2,
			"type": "SCALAR",
			"componentType": 5123,
			"count": 34200,
			"min": [
				0
			],
			"byteOffset": 0,
			"max": [
				8743
			]
		},
		{
			"bufferView": 3,
			"type": "VEC3",
			"componentType": 5126,
			"count": 8744,
			"min": [
				-662.7075805664063,
				-237.4639892578125,
				-103.83824157714844
			],
			"byteOffset": 0,
			"max": [
				416.2659912109375,
				352.2868347167969,
				12.608718872070313
			]
		},
		{
			"bufferView": 3,
			"type": "VEC3",
			"componentType": 5126,
			"count": 8744,
			"min": [
				-1.0,
				-1.0,
				-1.0
			],
			"byteOffset": 12,
			"max": [
				1.0,
				1.0,
				1.0
			]
		},
		{
			"bufferView": 3,
			"type": "VEC2",
			"componentType": 5126,
			"count": 8744,
			"min": [
				0.0,
				0.0
			],
			"byteOffset": 24,
			"max": [
				1.0,
				1.0
			]
		},
		{
			"bufferView": 4,
			"type": "SCALAR",
			"componentType": 5123,
			"count": 24354,
			"min": [
				0
			],
			"byteOffset": 0,
			"max": [
				4199
			]
		},
		{
			"bufferView": 5,
			"type": "VEC3",
			"componentType": 5126,
			"count": 4200,
			"min": [
				-917.3438720703125,
				-174.95001220703126,
				-883.9772338867188
			],
			"byteOffset": 0,
			"max": [
				847.8030395507813,
				171.07144165039063,
				916.0115356445313
			]
		},
		{
			"bufferView": 5,
			"type": "VEC3",
			"componentType": 5126,
			"count": 4200,
			"min": [
				-0.9997738599777222,
				-0.9999472498893738,
				-0.9995627403259277
			],
			"byteOffset": 12,
			"max": [
				0.9985049366950989,
				0.9998481869697571,
				0.9973638653755188
			]
		},
		{
			"bufferView": 5,
			"type": "VEC2",
			"componentType": 5126,
			"count": 4200,
			"min": [
				0.0,
				0.0
			],
			"byteOffset": 24,
			"max": [
				1.0,
				1.0
			]
		},
		{
			"bufferView": 6,
			"type": "SCALAR",
			"componentType": 5126,
			"count": 501,
			"min": [
				0.0
			],
			"byteOffset": 0,
			"max": [
				16.66666603088379
			]
		},
		{
			"bufferView": 6,
			"type": "VEC4",
			"componentType": 5126,
			"count": 501,
			"min": [
				-0.15424451231956483,
				-0.026467394083738328,
				-0.21319513022899629,
				-0.9644255638122559
			],
			"byteOffset": 2004,
			"max": [
				0.2643495798110962,
				0.9644265174865723,
				0.26434868574142458,
				0.9637646675109863
			]
		}
	],
	"bufferViews": [
		{
			"buffer": 0,
			"byteOffset": 0,
			"byteLength": 10020
		},
		{
			"buffer": 0,
			"byteOffset": 10020,
			"byteLength": 8016
		},
		{
			"buffer": 1,
			"byteOffset": 0,
			"byteLength": 68400,
			"target": 34963
		},
		{
			"buffer": 1,
			"byteOffset": 68400,
			"byteLength": 279808,
			"target": 34962,
			"byteStride": 32
		},
		{
			"buffer": 2,
			"byteOffset": 0,
			"byteLength": 48708,
			"target": 34963
		},
		{
			"buffer": 2,
			"byteOffset": 48708,
			"byteLength": 134400,
			"target": 34962,
			"byteStride": 32
		},
		{
			"buffer": 3,
			"byteOffset": 0,
			"byteLength": 10020
		}
	],
	"buffers": [
		{
			"uri": "data:application/octet-stream;base64,",
			"byteLength": 18036
		},
		{
			"uri": "data:application/octet-stream;base64,",
			"byteLength": 348208
		},
		{
			"uri": "data:application/octet-stream;base64,",
			"byteLength": 183108
		},
		{
			"uri": "data:application/octet-stream;base64,",
			"byteLength": 10020
		}
	],
	"samplers": [
		{
			"magFilter": 9729,
			"minFilter": 9729,
			"wrapS": 10497,
			"wrapT": 10497
		}
	],
	"textures": [
		{
			"sampler": 0,
			"source": 0
		}
	],
	"materials": [
		{
			"pbrMetallicRoughness": {
				"baseColorTexture": {
					"index": 0
				},
				"baseColorFactor": [
					1.0,
					1.0,
					1.0,
					1.0
				],
				"metallicFactor": 0.0,
				"roughnessFactor": 0.5
			},
			"emissiveFactor": [
				0.0,
				0.0,
				0.0
			],
			"alphaMode": "OPAQUE",
			"doubleSided": true,
			"name": "Mat"
		},
		{
			"pbrMetallicRoughness": {
				"baseColorFactor": [
					0.41000000000000005,
					0.41000000000000005,
					0.41000000000000005,
					1.0
				],
				"metallicFactor": 1.0,
				"roughnessFactor": 0.08
			},
			"emissiveFactor": [
				0.0,
				0.0,
				0.0
			],
			"alphaMode": "OPAQUE",
			"doubleSided": true,
			"name": "Mat.1"
		}
	],
	"animations": [
		{
			"samplers": [
				{
					"input": 0,
					"interpolation": "LINEAR",
					"output": 1
				},
				{
					"input": 2,
					"interpolation": "LINEAR",
					"output": 3
				},
				{
					"input": 12,
					"interpolation": "LINEAR",
					"output": 13
				}
			],
			"channels": [
				{
					"sampler": 0,
					"target": {
						"node": 0,
						"path": "rotation"
					}
				},
				{
					"sampler": 1,
					"target": {
						"node": 0,
						"path": "scale"
					}
				},
				{
					"sampler": 2,
					"target": {
						"node": 4,
						"path": "rotation"
					}
				}
			]
		}
	]
}